<svg width="1024" height="1024" viewBox="0 0 1024 1024" fill="none" xmlns="http://www.w3.org/2000/svg">
  <defs>
    <linearGradient id="tile" x1="188" y1="162" x2="836" y2="862" gradientUnits="userSpaceOnUse">
      <stop stop-color="#F6F4EC"/>
      <stop offset="1" stop-color="#C9C5B8"/>
    </linearGradient>
    <linearGradient id="panel" x1="264" y1="260" x2="760" y2="732" gradientUnits="userSpaceOnUse">
      <stop stop-color="#312F2B"/>
      <stop offset="1" stop-color="#57534B"/>
    </linearGradient>
    <linearGradient id="glass" x1="304" y1="312" x2="720" y2="438" gradientUnits="userSpaceOnUse">
      <stop stop-color="#FFFFFF" stop-opacity="0.72"/>
      <stop offset="1" stop-color="#FFFFFF" stop-opacity="0.28"/>
    </linearGradient>
    <filter id="shadow" x="132" y="128" width="760" height="784" filterUnits="userSpaceOnUse" color-interpolation-filters="sRGB">
      <feDropShadow dx="0" dy="28" stdDeviation="30" flood-color="#1B1A17" flood-opacity="0.22"/>
    </filter>
  </defs>

  <rect x="128" y="116" width="768" height="792" rx="184" fill="url(#tile)"/>
  <rect x="129.5" y="117.5" width="765" height="789" rx="182.5" stroke="#FFFFFF" stroke-opacity="0.56" stroke-width="3"/>

  <g filter="url(#shadow)">
    <rect x="210" y="204" width="604" height="616" rx="138" fill="url(#panel)"/>
    <rect x="211.5" y="205.5" width="601" height="613" rx="136.5" stroke="#FFFFFF" stroke-opacity="0.16" stroke-width="3"/>
  </g>

  <rect x="286" y="292" width="452" height="146" rx="73" fill="url(#glass)" stroke="#FFFFFF" stroke-opacity="0.34" stroke-width="3"/>
  <circle cx="676" cy="365" r="38" fill="#FFFFFF" fill-opacity="0.18" stroke="#FFFFFF" stroke-opacity="0.32" stroke-width="3"/>
  <circle cx="676" cy="365" r="15" stroke="#F7F4ED" stroke-width="10"/>
  <path d="M676 328V342M676 388V402M639 365H653M699 365H713M650 339L660 349M692 381L702 391M702 339L692 349M660 381L650 391" stroke="#F7F4ED" stroke-width="8" stroke-linecap="round"/>

  <rect x="336" y="340" width="250" height="30" rx="15" fill="#F7F4ED"/>
  <rect x="336" y="386" width="176" height="22" rx="11" fill="#F7F4ED" fill-opacity="0.52"/>

  <rect x="286" y="506" width="452" height="96" rx="35" fill="#FFFFFF" fill-opacity="0.11" stroke="#FFFFFF" stroke-opacity="0.16" stroke-width="3"/>
  <rect x="324" y="536" width="250" height="19" rx="9.5" fill="#F7F4ED" fill-opacity="0.92"/>
  <rect x="324" y="568" width="178" height="14" rx="7" fill="#F7F4ED" fill-opacity="0.46"/>
  <rect x="610" y="526" width="84" height="48" rx="24" fill="#FFFFFF" fill-opacity="0.17" stroke="#FFFFFF" stroke-opacity="0.2" stroke-width="3"/>

  <path d="M358 716C342.536 716 330 703.464 330 688C330 672.536 342.536 660 358 660H570C585.464 660 598 672.536 598 688C598 703.464 585.464 716 570 716H358Z" fill="#FFFFFF" fill-opacity="0.12"/>
</svg>
